<svg xmlns="http://www.w3.org/2000/svg" xmlns:xlink="http://www.w3.org/1999/xlink" width="58" zoomAndPan="magnify" viewBox="0 0 43.5 43.499999" height="58" preserveAspectRatio="xMidYMid meet" version="1.0"><defs><g/><clipPath id="8bb0207309"><path d="M 0 21.898438 L 43.003906 21.898438 L 43.003906 27.503906 L 0 27.503906 Z M 0 21.898438 " clip-rule="nonzero"/></clipPath></defs><g fill="#3b3937" fill-opacity="1"><g transform="translate(18.136392, 32.896056)"><g><path d="M 8.515625 0 L 2.21875 -17.921875 C 2.019531 -18.472656 1.773438 -18.847656 1.484375 -19.046875 C 1.191406 -19.242188 0.804688 -19.34375 0.328125 -19.34375 L 0 -19.34375 L 0 -19.625 L 7.96875 -19.625 L 7.96875 -19.34375 L 7.03125 -19.34375 C 6.539062 -19.34375 6.160156 -19.269531 5.890625 -19.125 C 5.628906 -18.976562 5.5 -18.710938 5.5 -18.328125 C 5.5 -18.003906 5.585938 -17.582031 5.765625 -17.0625 L 9.125 -7.3125 C 9.769531 -5.476562 10.273438 -3.835938 10.640625 -2.390625 C 10.835938 -3.066406 11.0625 -3.816406 11.3125 -4.640625 C 11.570312 -5.460938 11.820312 -6.242188 12.0625 -6.984375 L 15.21875 -16.875 C 15.425781 -17.445312 15.53125 -17.894531 15.53125 -18.21875 C 15.53125 -18.644531 15.382812 -18.9375 15.09375 -19.09375 C 14.8125 -19.257812 14.363281 -19.34375 13.75 -19.34375 L 12.0625 -19.34375 L 12.0625 -19.625 L 18.71875 -19.625 L 18.71875 -19.34375 L 17.78125 -19.34375 C 17.25 -19.34375 16.828125 -19.191406 16.515625 -18.890625 C 16.203125 -18.585938 15.925781 -18.046875 15.6875 -17.265625 L 10.109375 0 Z M 8.515625 0 "/></g></g></g><g fill="#3b3937" fill-opacity="1"><g transform="translate(1.757294, 24.366519)"><g><path d="M 0.03125 0 L 0.03125 -0.28125 L 0.90625 -0.28125 C 1.476562 -0.28125 1.925781 -0.429688 2.25 -0.734375 C 2.582031 -1.046875 2.882812 -1.597656 3.15625 -2.390625 L 9.265625 -19.625 L 11.015625 -19.625 L 17.703125 -1.875 C 17.941406 -1.269531 18.1875 -0.851562 18.4375 -0.625 C 18.695312 -0.394531 19.035156 -0.28125 19.453125 -0.28125 L 19.734375 -0.28125 L 19.734375 0 L 11.765625 0 L 11.765625 -0.28125 L 12.640625 -0.28125 C 13.265625 -0.28125 13.710938 -0.351562 13.984375 -0.5 C 14.265625 -0.65625 14.40625 -0.9375 14.40625 -1.34375 C 14.40625 -1.488281 14.382812 -1.664062 14.34375 -1.875 C 14.3125 -2.09375 14.25 -2.328125 14.15625 -2.578125 L 12.5 -7.140625 L 5.171875 -7.140625 L 3.625 -2.828125 C 3.53125 -2.554688 3.457031 -2.3125 3.40625 -2.09375 C 3.351562 -1.882812 3.328125 -1.691406 3.328125 -1.515625 C 3.328125 -1.054688 3.515625 -0.734375 3.890625 -0.546875 C 4.265625 -0.367188 4.875 -0.28125 5.71875 -0.28125 L 6.703125 -0.28125 L 6.703125 0 Z M 5.25 -7.421875 L 12.390625 -7.421875 L 10.46875 -12.703125 C 10.15625 -13.554688 9.851562 -14.414062 9.5625 -15.28125 C 9.269531 -16.15625 9.03125 -16.960938 8.84375 -17.703125 C 8.59375 -16.929688 8.34375 -16.195312 8.09375 -15.5 C 7.84375 -14.800781 7.5625 -14.003906 7.25 -13.109375 Z M 5.25 -7.421875 "/></g></g></g><g clip-path="url(#8bb0207309)"><path fill="#f4f4f4" d="M -3.464844 21.898438 L 44.496094 21.898438 L 44.496094 27.503906 L -3.464844 27.503906 Z M -3.464844 21.898438 " fill-opacity="1" fill-rule="nonzero"/></g><g fill="#967f71" fill-opacity="1"><g transform="translate(4.189357, 25.907658)"><g><path d="M 2.570312 -0.847656 C 2.898438 -1.355469 3.105469 -2.066406 2.859375 -2.433594 C 2.847656 -2.453125 2.828125 -2.464844 2.804688 -2.460938 C 2.78125 -2.460938 2.761719 -2.449219 2.753906 -2.425781 C 2.742188 -2.40625 2.742188 -2.382812 2.757812 -2.363281 C 2.945312 -2.085938 2.820312 -1.460938 2.464844 -0.914062 C 2.085938 -0.328125 1.585938 -0.0195312 1.121094 -0.0976562 C 1.09375 -0.0976562 1.070312 -0.117188 1.054688 -0.140625 C 0.96875 -0.285156 1.136719 -0.738281 1.285156 -1.136719 C 1.464844 -1.617188 1.636719 -2.074219 1.515625 -2.285156 C 1.484375 -2.34375 1.425781 -2.382812 1.355469 -2.394531 C 0.929688 -2.472656 0.367188 -2.160156 0.179688 -1.730469 C 0.0390625 -1.414062 0.136719 -1.097656 0.445312 -0.863281 C 0.472656 -0.84375 0.511719 -0.847656 0.53125 -0.875 C 0.554688 -0.90625 0.550781 -0.941406 0.519531 -0.964844 C 0.183594 -1.21875 0.210938 -1.496094 0.292969 -1.683594 C 0.457031 -2.054688 0.960938 -2.339844 1.332031 -2.273438 C 1.363281 -2.269531 1.394531 -2.25 1.40625 -2.222656 C 1.496094 -2.0625 1.324219 -1.59375 1.171875 -1.179688 C 0.988281 -0.695312 0.832031 -0.273438 0.945312 -0.078125 C 0.980469 -0.0195312 1.035156 0.015625 1.097656 0.0234375 C 1.152344 0.03125 1.207031 0.0390625 1.261719 0.0390625 C 1.726562 0.0390625 2.207031 -0.28125 2.570312 -0.847656 Z M 2.570312 -0.847656 "/></g></g></g><g fill="#967f71" fill-opacity="1"><g transform="translate(6.87514, 25.907658)"><g><path d="M 1.535156 -0.640625 C 1.507812 -0.664062 1.472656 -0.664062 1.449219 -0.636719 C 1.4375 -0.628906 0.671875 0.152344 0.160156 -0.21875 C 0.00390625 -0.335938 0.15625 -0.628906 0.160156 -0.632812 C 0.171875 -0.664062 0.160156 -0.699219 0.128906 -0.714844 C 0.0976562 -0.730469 0.0625 -0.71875 0.046875 -0.691406 C 0.0390625 -0.675781 -0.152344 -0.296875 0.0859375 -0.121094 C 0.199219 -0.0390625 0.335938 0.0078125 0.476562 0.00390625 C 0.988281 0.00390625 1.507812 -0.523438 1.535156 -0.550781 C 1.546875 -0.5625 1.554688 -0.578125 1.554688 -0.59375 C 1.550781 -0.609375 1.546875 -0.628906 1.535156 -0.640625 Z M 0.0195312 -0.828125 C 0.03125 -0.828125 0.0390625 -0.828125 0.0507812 -0.835938 C 0.105469 -0.863281 0.15625 -0.902344 0.203125 -0.945312 C 0.226562 -0.972656 0.222656 -1.007812 0.199219 -1.03125 C 0.171875 -1.058594 0.136719 -1.058594 0.113281 -1.03125 C 0.0742188 -0.996094 0.0351562 -0.964844 -0.0078125 -0.941406 C -0.03125 -0.929688 -0.046875 -0.902344 -0.0390625 -0.875 C -0.03125 -0.847656 -0.0078125 -0.828125 0.0195312 -0.828125 Z M 0.0195312 -0.828125 "/></g></g></g><g fill="#967f71" fill-opacity="1"><g transform="translate(8.329348, 25.907658)"><g><path d="M 2.070312 -0.589844 C 2.058594 -0.597656 2.042969 -0.605469 2.027344 -0.605469 C 2.007812 -0.605469 1.992188 -0.597656 1.984375 -0.585938 C 1.976562 -0.582031 1.453125 -0.0234375 1.003906 -0.207031 C 0.90625 -0.257812 0.828125 -0.335938 0.773438 -0.433594 C 0.753906 -0.464844 0.730469 -0.496094 0.703125 -0.523438 C 0.671875 -0.5625 0.625 -0.582031 0.574219 -0.585938 C 0.453125 -0.59375 0.304688 -0.515625 0.128906 -0.347656 C 0.125 -0.34375 0.117188 -0.339844 0.113281 -0.347656 C 0.105469 -0.347656 0.0976562 -0.359375 0.101562 -0.363281 L 0.152344 -0.597656 C 0.164062 -0.628906 0.140625 -0.664062 0.109375 -0.671875 C 0.0742188 -0.679688 0.0429688 -0.660156 0.03125 -0.625 L -0.0859375 -0.105469 C -0.09375 -0.078125 -0.078125 -0.0507812 -0.0507812 -0.0390625 C -0.0273438 -0.0234375 0.00390625 -0.03125 0.0234375 -0.0507812 C 0.339844 -0.425781 0.503906 -0.460938 0.558594 -0.460938 C 0.617188 -0.464844 0.652344 -0.390625 0.671875 -0.363281 C 0.738281 -0.246094 0.835938 -0.152344 0.953125 -0.09375 C 1.484375 0.125 2.050781 -0.476562 2.074219 -0.503906 C 2.097656 -0.527344 2.09375 -0.566406 2.070312 -0.589844 Z M 2.070312 -0.589844 "/></g></g></g><g fill="#967f71" fill-opacity="1"><g transform="translate(10.302239, 25.907658)"><g><path d="M 1.871094 -0.566406 C 1.847656 -0.59375 1.808594 -0.59375 1.78125 -0.570312 C 1.777344 -0.570312 1.289062 -0.140625 0.929688 -0.199219 C 0.824219 -0.214844 0.730469 -0.28125 0.679688 -0.375 C 0.636719 -0.457031 0.550781 -0.507812 0.460938 -0.519531 C 0.34375 -0.527344 0.214844 -0.457031 0.0820312 -0.316406 C 0.0742188 -0.308594 0.0625 -0.304688 0.0507812 -0.308594 C 0.0429688 -0.316406 0.0390625 -0.324219 0.0390625 -0.335938 C 0.046875 -0.382812 0.0703125 -0.496094 0.078125 -0.539062 C 0.078125 -0.53125 0.09375 -0.5625 0.09375 -0.566406 C 0.296875 -0.839844 0.898438 -1.714844 0.664062 -1.992188 C 0.632812 -2.035156 0.574219 -2.054688 0.523438 -2.039062 C 0.476562 -2.027344 0.332031 -1.980469 0.109375 -1.191406 C 0.0546875 -0.996094 0.00390625 -0.792969 -0.0351562 -0.597656 L -0.0507812 -0.574219 C -0.0703125 -0.554688 -0.0703125 -0.527344 -0.0546875 -0.503906 C -0.0898438 -0.328125 -0.113281 -0.164062 -0.125 -0.0429688 C -0.128906 -0.015625 -0.113281 0.0117188 -0.0859375 0.0195312 C -0.0585938 0.03125 -0.0273438 0.0195312 -0.0117188 -0.00390625 C 0.230469 -0.351562 0.382812 -0.398438 0.453125 -0.394531 C 0.503906 -0.390625 0.546875 -0.359375 0.570312 -0.316406 C 0.640625 -0.1875 0.769531 -0.0976562 0.914062 -0.0742188 C 1.328125 -0.0117188 1.839844 -0.460938 1.863281 -0.480469 C 1.886719 -0.503906 1.890625 -0.539062 1.871094 -0.566406 Z M 0.558594 -1.921875 C 0.5625 -1.921875 0.566406 -1.914062 0.570312 -1.914062 C 0.683594 -1.785156 0.210938 -0.832031 0.152344 -0.871094 C 0.09375 -0.90625 0.460938 -1.921875 0.558594 -1.921875 Z M 0.558594 -1.921875 "/></g></g></g><g fill="#967f71" fill-opacity="1"><g transform="translate(12.092761, 25.907658)"><g><path d="M 1.980469 -0.574219 C 1.957031 -0.597656 1.917969 -0.601562 1.890625 -0.578125 C 1.882812 -0.570312 1.179688 0.0625 0.742188 -0.226562 C 0.570312 -0.339844 0.527344 -0.613281 0.527344 -0.617188 C 0.527344 -0.644531 0.503906 -0.664062 0.476562 -0.671875 C 0.449219 -0.671875 0.421875 -0.660156 0.410156 -0.636719 C 0.296875 -0.386719 0.101562 -0.0742188 0.046875 -0.113281 C 0.0429688 -0.113281 0.03125 -0.121094 0.0273438 -0.136719 C -0.00390625 -0.214844 0.0078125 -0.300781 0.046875 -0.375 C 0.136719 -0.558594 0.304688 -0.691406 0.503906 -0.742188 C 0.523438 -0.746094 0.539062 -0.761719 0.546875 -0.785156 C 0.554688 -0.804688 0.546875 -0.828125 0.53125 -0.847656 C 0.515625 -0.859375 0.496094 -0.867188 0.472656 -0.863281 C 0.238281 -0.804688 0.0390625 -0.644531 -0.0664062 -0.425781 C -0.125 -0.320312 -0.128906 -0.191406 -0.0859375 -0.0820312 C -0.0625 -0.0273438 -0.0117188 0.0117188 0.046875 0.0117188 L 0.0507812 0.0117188 C 0.164062 0.0078125 0.308594 -0.136719 0.410156 -0.292969 C 0.421875 -0.308594 0.441406 -0.320312 0.464844 -0.316406 C 0.484375 -0.316406 0.503906 -0.304688 0.515625 -0.285156 C 0.554688 -0.21875 0.609375 -0.164062 0.675781 -0.125 C 1.191406 0.21875 1.941406 -0.457031 1.976562 -0.484375 C 1.988281 -0.496094 1.996094 -0.515625 1.996094 -0.527344 C 1.996094 -0.546875 1.992188 -0.5625 1.980469 -0.574219 Z M 1.980469 -0.574219 "/></g></g></g><g fill="#967f71" fill-opacity="1"><g transform="translate(14.006442, 25.907658)"><g><path d="M 2.042969 -0.625 C 2.03125 -0.636719 2.015625 -0.640625 2 -0.640625 C 1.984375 -0.640625 1.964844 -0.636719 1.953125 -0.625 C 1.542969 -0.222656 0.816406 -0.136719 0.660156 -0.230469 C 0.554688 -0.292969 0.566406 -0.363281 0.640625 -0.511719 C 0.675781 -0.582031 0.71875 -0.664062 0.648438 -0.714844 C 0.585938 -0.761719 0.523438 -0.730469 0.46875 -0.703125 C 0.390625 -0.660156 0.304688 -0.636719 0.210938 -0.636719 C 0.191406 -0.636719 0.171875 -0.671875 0.175781 -0.6875 C 0.308594 -0.980469 0.25 -1.03125 0.226562 -1.054688 C 0.191406 -1.089844 0.136719 -1.085938 0.0703125 -1.046875 C -0.0390625 -0.96875 -0.0859375 -0.828125 -0.046875 -0.699219 C -0.0390625 -0.664062 -0.0195312 -0.628906 0.00390625 -0.601562 C 0 -0.574219 0.0117188 -0.550781 0.0351562 -0.539062 C 0.0507812 -0.53125 0.0664062 -0.53125 0.0820312 -0.539062 C 0.125 -0.519531 0.167969 -0.507812 0.214844 -0.507812 C 0.308594 -0.507812 0.40625 -0.527344 0.492188 -0.574219 C 0.523438 -0.59375 0.535156 -0.578125 0.53125 -0.570312 C 0.472656 -0.457031 0.371094 -0.253906 0.597656 -0.121094 C 0.679688 -0.0820312 0.769531 -0.0664062 0.859375 -0.0742188 C 1.191406 -0.0742188 1.714844 -0.214844 2.039062 -0.535156 C 2.050781 -0.546875 2.058594 -0.5625 2.058594 -0.578125 C 2.0625 -0.59375 2.054688 -0.609375 2.042969 -0.625 Z M 0.0703125 -0.753906 C 0.0546875 -0.820312 0.078125 -0.894531 0.132812 -0.9375 C 0.117188 -0.875 0.09375 -0.8125 0.0703125 -0.75 Z M 0.0703125 -0.753906 "/></g></g></g><g fill="#967f71" fill-opacity="1"><g transform="translate(15.948543, 25.907658)"><g><path d="M 1.535156 -0.640625 C 1.507812 -0.664062 1.472656 -0.664062 1.449219 -0.636719 C 1.4375 -0.628906 0.671875 0.152344 0.160156 -0.21875 C 0.00390625 -0.335938 0.15625 -0.628906 0.160156 -0.632812 C 0.171875 -0.664062 0.160156 -0.699219 0.128906 -0.714844 C 0.0976562 -0.730469 0.0625 -0.71875 0.046875 -0.691406 C 0.0390625 -0.675781 -0.152344 -0.296875 0.0859375 -0.121094 C 0.199219 -0.0390625 0.335938 0.0078125 0.476562 0.00390625 C 0.988281 0.00390625 1.507812 -0.523438 1.535156 -0.550781 C 1.546875 -0.5625 1.554688 -0.578125 1.554688 -0.59375 C 1.550781 -0.609375 1.546875 -0.628906 1.535156 -0.640625 Z M 0.0195312 -0.828125 C 0.03125 -0.828125 0.0390625 -0.828125 0.0507812 -0.835938 C 0.105469 -0.863281 0.15625 -0.902344 0.203125 -0.945312 C 0.226562 -0.972656 0.222656 -1.007812 0.199219 -1.03125 C 0.171875 -1.058594 0.136719 -1.058594 0.113281 -1.03125 C 0.0742188 -0.996094 0.0351562 -0.964844 -0.0078125 -0.941406 C -0.03125 -0.929688 -0.046875 -0.902344 -0.0390625 -0.875 C -0.03125 -0.847656 -0.0078125 -0.828125 0.0195312 -0.828125 Z M 0.0195312 -0.828125 "/></g></g></g><g fill="#967f71" fill-opacity="1"><g transform="translate(17.402751, 25.907658)"><g><path d="M 1.980469 -0.574219 C 1.957031 -0.597656 1.917969 -0.601562 1.890625 -0.578125 C 1.882812 -0.570312 1.179688 0.0625 0.742188 -0.226562 C 0.570312 -0.339844 0.527344 -0.613281 0.527344 -0.617188 C 0.527344 -0.644531 0.503906 -0.664062 0.476562 -0.671875 C 0.449219 -0.671875 0.421875 -0.660156 0.410156 -0.636719 C 0.296875 -0.386719 0.101562 -0.0742188 0.046875 -0.113281 C 0.0429688 -0.113281 0.03125 -0.121094 0.0273438 -0.136719 C -0.00390625 -0.214844 0.0078125 -0.300781 0.046875 -0.375 C 0.136719 -0.558594 0.304688 -0.691406 0.503906 -0.742188 C 0.523438 -0.746094 0.539062 -0.761719 0.546875 -0.785156 C 0.554688 -0.804688 0.546875 -0.828125 0.53125 -0.847656 C 0.515625 -0.859375 0.496094 -0.867188 0.472656 -0.863281 C 0.238281 -0.804688 0.0390625 -0.644531 -0.0664062 -0.425781 C -0.125 -0.320312 -0.128906 -0.191406 -0.0859375 -0.0820312 C -0.0625 -0.0273438 -0.0117188 0.0117188 0.046875 0.0117188 L 0.0507812 0.0117188 C 0.164062 0.0078125 0.308594 -0.136719 0.410156 -0.292969 C 0.421875 -0.308594 0.441406 -0.320312 0.464844 -0.316406 C 0.484375 -0.316406 0.503906 -0.304688 0.515625 -0.285156 C 0.554688 -0.21875 0.609375 -0.164062 0.675781 -0.125 C 1.191406 0.21875 1.941406 -0.457031 1.976562 -0.484375 C 1.988281 -0.496094 1.996094 -0.515625 1.996094 -0.527344 C 1.996094 -0.546875 1.992188 -0.5625 1.980469 -0.574219 Z M 1.980469 -0.574219 "/></g></g></g><g fill="#967f71" fill-opacity="1"><g transform="translate(19.316432, 25.907658)"><g/></g></g><g fill="#967f71" fill-opacity="1"><g transform="translate(20.197483, 25.907658)"><g><path d="M 3.058594 -0.714844 C 3.167969 -0.902344 3.238281 -0.855469 3.394531 -0.820312 C 3.578125 -0.75 3.75 -0.683594 3.90625 -0.625 C 3.957031 -0.605469 3.988281 -0.566406 3.996094 -0.515625 C 4.039062 -0.222656 4.097656 -0.0703125 4.195312 -0.0390625 C 4.210938 -0.03125 4.226562 -0.03125 4.242188 -0.0390625 C 4.253906 -0.046875 4.265625 -0.0625 4.273438 -0.0742188 C 4.28125 -0.109375 4.265625 -0.144531 4.230469 -0.15625 C 4.191406 -0.171875 4.160156 -0.265625 4.136719 -0.410156 C 4.128906 -0.441406 4.140625 -0.472656 4.164062 -0.492188 C 4.1875 -0.507812 4.21875 -0.515625 4.25 -0.507812 C 4.410156 -0.449219 4.582031 -0.414062 4.753906 -0.402344 C 4.765625 -0.402344 4.785156 -0.410156 4.796875 -0.421875 C 4.808594 -0.433594 4.8125 -0.449219 4.8125 -0.464844 C 4.8125 -0.484375 4.804688 -0.5 4.792969 -0.507812 C 4.78125 -0.519531 4.765625 -0.527344 4.75 -0.527344 C 4.554688 -0.542969 4.371094 -0.585938 4.1875 -0.660156 C 4.136719 -0.675781 4.097656 -0.722656 4.09375 -0.777344 C 4.054688 -1.273438 4.050781 -1.9375 4.050781 -2.308594 C 4.046875 -2.828125 4.042969 -3.03125 4.019531 -3.085938 C 4.007812 -3.113281 3.984375 -3.128906 3.960938 -3.128906 C 3.929688 -3.125 3.910156 -3.105469 3.902344 -3.082031 C 3.761719 -2.574219 3.589844 -2.082031 3.382812 -1.597656 C 3.316406 -1.441406 3.25 -1.300781 3.179688 -1.167969 C 3.148438 -1.105469 3.074219 -1.078125 3.007812 -1.101562 C 2.230469 -1.398438 1.34375 -1.71875 0.664062 -1.773438 C 0.402344 -1.792969 0.230469 -1.742188 0.15625 -1.632812 C 0.09375 -1.539062 0.105469 -1.414062 0.191406 -1.257812 C 0.449219 -0.78125 1.453125 -0.0234375 2.160156 -0.0234375 C 2.492188 -0.0234375 2.796875 -0.316406 3.058594 -0.714844 Z M 0.546875 -1.652344 C 0.582031 -1.652344 0.617188 -1.652344 0.652344 -1.648438 C 1.300781 -1.597656 2.152344 -1.296875 2.90625 -1.007812 C 2.941406 -0.996094 2.972656 -0.960938 2.984375 -0.925781 C 3 -0.882812 2.992188 -0.839844 2.972656 -0.804688 C 2.695312 -0.371094 2.417969 -0.148438 2.160156 -0.148438 C 1.550781 -0.148438 0.566406 -0.828125 0.296875 -1.316406 C 0.257812 -1.394531 0.21875 -1.496094 0.261719 -1.5625 C 0.296875 -1.621094 0.398438 -1.652344 0.546875 -1.652344 Z M 3.875 -2.5625 C 3.894531 -2.609375 3.925781 -2.601562 3.925781 -2.546875 C 3.925781 -2.472656 3.925781 -2.390625 3.925781 -2.308594 C 3.929688 -1.726562 3.9375 -1.261719 3.960938 -0.910156 C 3.964844 -0.871094 3.945312 -0.835938 3.914062 -0.808594 C 3.882812 -0.785156 3.84375 -0.78125 3.808594 -0.796875 C 3.660156 -0.851562 3.496094 -0.914062 3.332031 -0.980469 L 3.238281 -1.015625 C 3.496094 -1.507812 3.710938 -2.027344 3.875 -2.5625 Z M 3.875 -2.5625 "/></g></g></g><g fill="#967f71" fill-opacity="1"><g transform="translate(25.133261, 25.907658)"><g><path d="M 1.648438 -0.625 C 1.625 -0.648438 1.582031 -0.644531 1.5625 -0.617188 C 1.375 -0.425781 1.070312 -0.40625 0.863281 -0.574219 C 0.8125 -0.609375 0.742188 -0.605469 0.699219 -0.5625 C 0.671875 -0.539062 0.644531 -0.515625 0.617188 -0.484375 C 0.527344 -0.382812 0.507812 -0.464844 0.507812 -0.523438 C 0.507812 -0.574219 0.5 -0.625 0.484375 -0.671875 C 0.472656 -0.695312 0.449219 -0.714844 0.425781 -0.714844 C 0.398438 -0.710938 0.375 -0.695312 0.367188 -0.671875 C 0.300781 -0.484375 0.160156 -0.214844 0.0585938 -0.195312 C 0.0507812 -0.195312 0.03125 -0.191406 0.00390625 -0.222656 C -0.0078125 -0.285156 0 -0.351562 0.03125 -0.40625 C 0.101562 -0.597656 0.277344 -0.734375 0.480469 -0.753906 C 0.515625 -0.757812 0.542969 -0.785156 0.539062 -0.820312 C 0.539062 -0.855469 0.507812 -0.882812 0.472656 -0.878906 C 0.21875 -0.855469 0.00390625 -0.691406 -0.0859375 -0.449219 C -0.128906 -0.347656 -0.152344 -0.207031 -0.0859375 -0.140625 C -0.046875 -0.0859375 0.0195312 -0.0625 0.0820312 -0.0742188 C 0.203125 -0.0976562 0.308594 -0.257812 0.382812 -0.398438 C 0.378906 -0.339844 0.371094 -0.277344 0.363281 -0.210938 C 0.359375 -0.195312 0.355469 -0.183594 0.347656 -0.175781 C 0.0703125 0.175781 -0.179688 0.597656 -0.183594 0.867188 C -0.191406 0.9375 -0.164062 1.007812 -0.117188 1.0625 C -0.09375 1.085938 -0.0664062 1.097656 -0.0351562 1.097656 C -0.0078125 1.097656 0.015625 1.089844 0.0390625 1.074219 C 0.195312 0.972656 0.394531 0.363281 0.472656 -0.121094 C 0.472656 -0.128906 0.480469 -0.140625 0.484375 -0.148438 C 0.570312 -0.25 0.65625 -0.347656 0.75 -0.441406 C 0.769531 -0.460938 0.804688 -0.464844 0.828125 -0.449219 C 1.085938 -0.273438 1.433594 -0.308594 1.652344 -0.535156 C 1.671875 -0.5625 1.671875 -0.597656 1.648438 -0.625 Z M 0.0703125 0.824219 C 0.015625 0.933594 -0.00390625 0.980469 -0.03125 0.972656 C -0.0585938 0.964844 -0.0625 0.917969 -0.0585938 0.871094 C -0.0546875 0.6875 0.261719 0.0703125 0.308594 0.0859375 C 0.351562 0.105469 0.160156 0.636719 0.0703125 0.824219 Z M 0.0703125 0.824219 "/></g></g></g><g fill="#967f71" fill-opacity="1"><g transform="translate(26.694048, 25.907658)"><g><path d="M 2.070312 -0.589844 C 2.058594 -0.597656 2.042969 -0.605469 2.027344 -0.605469 C 2.007812 -0.605469 1.992188 -0.597656 1.984375 -0.585938 C 1.976562 -0.582031 1.453125 -0.0234375 1.003906 -0.207031 C 0.90625 -0.257812 0.828125 -0.335938 0.773438 -0.433594 C 0.753906 -0.464844 0.730469 -0.496094 0.703125 -0.523438 C 0.671875 -0.5625 0.625 -0.582031 0.574219 -0.585938 C 0.453125 -0.59375 0.304688 -0.515625 0.128906 -0.347656 C 0.125 -0.34375 0.117188 -0.339844 0.113281 -0.347656 C 0.105469 -0.347656 0.0976562 -0.359375 0.101562 -0.363281 L 0.152344 -0.597656 C 0.164062 -0.628906 0.140625 -0.664062 0.109375 -0.671875 C 0.0742188 -0.679688 0.0429688 -0.660156 0.03125 -0.625 L -0.0859375 -0.105469 C -0.09375 -0.078125 -0.078125 -0.0507812 -0.0507812 -0.0390625 C -0.0273438 -0.0234375 0.00390625 -0.03125 0.0234375 -0.0507812 C 0.339844 -0.425781 0.503906 -0.460938 0.558594 -0.460938 C 0.617188 -0.464844 0.652344 -0.390625 0.671875 -0.363281 C 0.738281 -0.246094 0.835938 -0.152344 0.953125 -0.09375 C 1.484375 0.125 2.050781 -0.476562 2.074219 -0.503906 C 2.097656 -0.527344 2.09375 -0.566406 2.070312 -0.589844 Z M 2.070312 -0.589844 "/></g></g></g><g fill="#967f71" fill-opacity="1"><g transform="translate(28.666938, 25.907658)"><g><path d="M 1.988281 -0.609375 C 1.976562 -0.621094 1.960938 -0.628906 1.945312 -0.628906 C 1.929688 -0.632812 1.914062 -0.628906 1.898438 -0.617188 C 1.890625 -0.609375 0.980469 0.113281 0.21875 -0.199219 C 0.0625 -0.261719 0.0585938 -0.347656 0.0625 -0.390625 C 0.0625 -0.398438 0.0625 -0.40625 0.0703125 -0.410156 C 0.0742188 -0.414062 0.0859375 -0.414062 0.09375 -0.414062 C 0.246094 -0.402344 0.402344 -0.441406 0.53125 -0.527344 C 0.648438 -0.597656 0.664062 -0.679688 0.660156 -0.730469 C 0.652344 -0.816406 0.585938 -0.886719 0.496094 -0.886719 C 0.308594 -0.898438 -0.00390625 -0.675781 -0.0546875 -0.4375 C -0.0742188 -0.351562 -0.0742188 -0.183594 0.171875 -0.0859375 C 0.320312 -0.0234375 0.476562 0.00390625 0.636719 0.00390625 C 1.316406 0.00390625 1.945312 -0.496094 1.976562 -0.519531 C 1.992188 -0.53125 2 -0.546875 2 -0.5625 C 2.003906 -0.578125 1.996094 -0.59375 1.988281 -0.609375 Z M 0.148438 -0.558594 C 0.238281 -0.683594 0.394531 -0.769531 0.492188 -0.761719 C 0.515625 -0.761719 0.53125 -0.753906 0.535156 -0.71875 C 0.539062 -0.695312 0.511719 -0.660156 0.464844 -0.628906 C 0.367188 -0.566406 0.0742188 -0.460938 0.148438 -0.558594 Z M 0.148438 -0.558594 "/></g></g></g><g fill="#967f71" fill-opacity="1"><g transform="translate(30.564039, 25.907658)"><g><path d="M 1.628906 -0.605469 C 1.617188 -0.617188 1.601562 -0.625 1.585938 -0.625 C 1.570312 -0.625 1.550781 -0.617188 1.539062 -0.605469 C 1.535156 -0.601562 0.914062 0.0117188 0.464844 -0.125 C 0.304688 -0.171875 0.21875 -0.320312 0.167969 -0.484375 C 0.152344 -0.535156 0.160156 -0.59375 0.183594 -0.640625 C 0.347656 -0.980469 0.757812 -1.859375 0.554688 -2.074219 C 0.507812 -2.136719 0.429688 -2.152344 0.359375 -2.125 C 0.121094 -2.019531 -0.0390625 -1.320312 -0.0078125 -0.8125 C -0.00390625 -0.734375 0.00390625 -0.65625 0.0195312 -0.578125 C 0.0195312 -0.570312 0.0195312 -0.5625 0.0234375 -0.554688 C 0.0859375 -0.257812 0.226562 -0.0625 0.429688 -0.00390625 C 0.484375 0.0117188 0.542969 0.0195312 0.597656 0.0195312 C 1.082031 0.0195312 1.605469 -0.496094 1.628906 -0.519531 C 1.640625 -0.53125 1.648438 -0.546875 1.648438 -0.5625 C 1.648438 -0.582031 1.640625 -0.59375 1.628906 -0.605469 Z M 0.121094 -0.847656 C 0.046875 -1.242188 0.292969 -1.960938 0.410156 -2.011719 C 0.414062 -2.015625 0.417969 -2.015625 0.425781 -2.015625 C 0.433594 -2.015625 0.445312 -2.011719 0.460938 -1.992188 C 0.558594 -1.894531 0.285156 -1.035156 0.160156 -0.835938 C 0.148438 -0.8125 0.125 -0.824219 0.121094 -0.847656 Z M 0.121094 -0.847656 "/></g></g></g><g fill="#967f71" fill-opacity="1"><g transform="translate(32.124826, 25.907658)"><g><path d="M 1.628906 -0.605469 C 1.617188 -0.617188 1.601562 -0.625 1.585938 -0.625 C 1.570312 -0.625 1.550781 -0.617188 1.539062 -0.605469 C 1.535156 -0.601562 0.914062 0.0117188 0.464844 -0.125 C 0.304688 -0.171875 0.21875 -0.320312 0.167969 -0.484375 C 0.152344 -0.535156 0.160156 -0.59375 0.183594 -0.640625 C 0.347656 -0.980469 0.757812 -1.859375 0.554688 -2.074219 C 0.507812 -2.136719 0.429688 -2.152344 0.359375 -2.125 C 0.121094 -2.019531 -0.0390625 -1.320312 -0.0078125 -0.8125 C -0.00390625 -0.734375 0.00390625 -0.65625 0.0195312 -0.578125 C 0.0195312 -0.570312 0.0195312 -0.5625 0.0234375 -0.554688 C 0.0859375 -0.257812 0.226562 -0.0625 0.429688 -0.00390625 C 0.484375 0.0117188 0.542969 0.0195312 0.597656 0.0195312 C 1.082031 0.0195312 1.605469 -0.496094 1.628906 -0.519531 C 1.640625 -0.53125 1.648438 -0.546875 1.648438 -0.5625 C 1.648438 -0.582031 1.640625 -0.59375 1.628906 -0.605469 Z M 0.121094 -0.847656 C 0.046875 -1.242188 0.292969 -1.960938 0.410156 -2.011719 C 0.414062 -2.015625 0.417969 -2.015625 0.425781 -2.015625 C 0.433594 -2.015625 0.445312 -2.011719 0.460938 -1.992188 C 0.558594 -1.894531 0.285156 -1.035156 0.160156 -0.835938 C 0.148438 -0.8125 0.125 -0.824219 0.121094 -0.847656 Z M 0.121094 -0.847656 "/></g></g></g><g fill="#967f71" fill-opacity="1"><g transform="translate(33.685614, 25.907658)"><g><path d="M 1.726562 -0.671875 C 1.714844 -0.683594 1.703125 -0.691406 1.683594 -0.691406 C 1.667969 -0.691406 1.652344 -0.683594 1.640625 -0.671875 C 1.355469 -0.386719 0.953125 -0.257812 0.558594 -0.324219 C 0.527344 -0.332031 0.503906 -0.359375 0.507812 -0.390625 C 0.527344 -0.503906 0.519531 -0.621094 0.453125 -0.660156 C 0.410156 -0.683594 0.347656 -0.683594 0.269531 -0.558594 C 0.242188 -0.515625 0.230469 -0.460938 0.242188 -0.414062 C 0.253906 -0.363281 0.285156 -0.316406 0.328125 -0.292969 C 0.351562 -0.269531 0.320312 -0.234375 0.304688 -0.21875 C 0.261719 -0.164062 0.183594 -0.152344 0.128906 -0.195312 C 0.0585938 -0.226562 0.0273438 -0.304688 0.0546875 -0.371094 C 0.0859375 -0.496094 0.207031 -0.605469 0.253906 -0.605469 C 0.285156 -0.605469 0.316406 -0.636719 0.316406 -0.667969 C 0.316406 -0.703125 0.289062 -0.730469 0.257812 -0.730469 L 0.253906 -0.730469 C 0.136719 -0.730469 -0.0234375 -0.570312 -0.0664062 -0.402344 C -0.105469 -0.28125 -0.0507812 -0.144531 0.0703125 -0.0859375 C 0.113281 -0.0625 0.164062 -0.0507812 0.214844 -0.046875 C 0.316406 -0.0507812 0.40625 -0.113281 0.449219 -0.207031 C 0.453125 -0.214844 0.464844 -0.21875 0.476562 -0.21875 C 0.777344 -0.128906 1.328125 -0.183594 1.726562 -0.582031 C 1.738281 -0.59375 1.746094 -0.609375 1.746094 -0.628906 C 1.746094 -0.644531 1.738281 -0.660156 1.726562 -0.671875 Z M 0.386719 -0.402344 C 0.359375 -0.425781 0.355469 -0.464844 0.375 -0.492188 C 0.382812 -0.503906 0.386719 -0.511719 0.394531 -0.519531 C 0.394531 -0.480469 0.394531 -0.441406 0.386719 -0.402344 Z M 0.386719 -0.402344 "/></g></g></g></svg>